<mxfile host="app.diagrams.net" agent="Mozilla/5.0 (Windows NT 10.0; Win64; x64) AppleWebKit/537.36 (KHTML, like Gecko) Chrome/135.0.0.0 Safari/537.36" version="26.2.12">
  <diagram name="Page-1" id="MTRFBZ5TM3kWIaLDKkTL">
    <mxGraphModel grid="1" page="1" gridSize="10" guides="1" tooltips="1" connect="1" arrows="1" fold="1" pageScale="1" pageWidth="827" pageHeight="1169" math="0" shadow="0">
      <root>
        <mxCell id="0" />
        <mxCell id="1" parent="0" />
        <mxCell id="2" value="BRAND" style="shape=table;startSize=25;container=1;collapsible=0;childLayout=tableLayout;fixedRows=1;rowLines=1;fontStyle=1;align=center;resizeLast=1;" vertex="1" parent="1">
          <mxGeometry x="20" y="20" width="125" height="68" as="geometry" />
        </mxCell>
        <mxCell id="3" style="shape=tableRow;horizontal=0;startSize=0;swimlaneHead=0;swimlaneBody=0;fillColor=none;collapsible=0;dropTarget=0;points=[[0,0.5],[1,0.5]];portConstraint=eastwest;top=0;left=0;right=0;bottom=0;" vertex="1" parent="2">
          <mxGeometry y="21" width="125" height="21" as="geometry" />
        </mxCell>
        <mxCell id="4" value="int" style="shape=partialRectangle;connectable=0;fillColor=none;top=0;left=0;bottom=0;right=0;align=left;spacingLeft=2;overflow=hidden;fontSize=11;" vertex="1" parent="3">
          <mxGeometry width="36" height="21" as="geometry" />
        </mxCell>
        <mxCell id="5" value="brand_id" style="shape=partialRectangle;connectable=0;fillColor=none;top=0;left=0;bottom=0;right=0;align=left;spacingLeft=2;overflow=hidden;fontSize=11;" vertex="1" parent="3">
          <mxGeometry width="67" height="21" as="geometry" />
        </mxCell>
        <mxCell id="6" value="PK" style="shape=partialRectangle;connectable=0;fillColor=none;top=0;left=0;bottom=0;right=0;align=left;spacingLeft=2;overflow=hidden;fontSize=11;" vertex="1" parent="3">
          <mxGeometry width="22" height="21" as="geometry" />
        </mxCell>
        <mxCell id="7" style="shape=tableRow;horizontal=0;startSize=0;swimlaneHead=0;swimlaneBody=0;fillColor=none;collapsible=0;dropTarget=0;points=[[0,0.5],[1,0.5]];portConstraint=eastwest;top=0;left=0;right=0;bottom=0;" vertex="1" parent="2">
          <mxGeometry y="43" width="125" height="21" as="geometry" />
        </mxCell>
        <mxCell id="8" value="string" style="shape=partialRectangle;connectable=0;fillColor=none;top=0;left=0;bottom=0;right=0;align=left;spacingLeft=2;overflow=hidden;fontSize=11;" vertex="1" parent="7">
          <mxGeometry width="36" height="21" as="geometry" />
        </mxCell>
        <mxCell id="9" value="brand_name" style="shape=partialRectangle;connectable=0;fillColor=none;top=0;left=0;bottom=0;right=0;align=left;spacingLeft=2;overflow=hidden;fontSize=11;" vertex="1" parent="7">
          <mxGeometry width="67" height="21" as="geometry" />
        </mxCell>
        <mxCell id="10" value="" style="shape=partialRectangle;connectable=0;fillColor=none;top=0;left=0;bottom=0;right=0;align=left;spacingLeft=2;overflow=hidden;fontSize=11;" vertex="1" parent="7">
          <mxGeometry width="22" height="21" as="geometry" />
        </mxCell>
        <mxCell id="11" value="PRODUCT_CATEGORY" style="shape=table;startSize=25;container=1;collapsible=0;childLayout=tableLayout;fixedRows=1;rowLines=1;fontStyle=1;align=center;resizeLast=1;" vertex="1" parent="1">
          <mxGeometry x="245" y="20" width="143" height="68" as="geometry" />
        </mxCell>
        <mxCell id="12" style="shape=tableRow;horizontal=0;startSize=0;swimlaneHead=0;swimlaneBody=0;fillColor=none;collapsible=0;dropTarget=0;points=[[0,0.5],[1,0.5]];portConstraint=eastwest;top=0;left=0;right=0;bottom=0;" vertex="1" parent="11">
          <mxGeometry y="21" width="143" height="21" as="geometry" />
        </mxCell>
        <mxCell id="13" value="int" style="shape=partialRectangle;connectable=0;fillColor=none;top=0;left=0;bottom=0;right=0;align=left;spacingLeft=2;overflow=hidden;fontSize=11;" vertex="1" parent="12">
          <mxGeometry width="36" height="21" as="geometry" />
        </mxCell>
        <mxCell id="14" value="category_id" style="shape=partialRectangle;connectable=0;fillColor=none;top=0;left=0;bottom=0;right=0;align=left;spacingLeft=2;overflow=hidden;fontSize=11;" vertex="1" parent="12">
          <mxGeometry width="85" height="21" as="geometry" />
        </mxCell>
        <mxCell id="15" value="PK" style="shape=partialRectangle;connectable=0;fillColor=none;top=0;left=0;bottom=0;right=0;align=left;spacingLeft=2;overflow=hidden;fontSize=11;" vertex="1" parent="12">
          <mxGeometry width="22" height="21" as="geometry" />
        </mxCell>
        <mxCell id="16" style="shape=tableRow;horizontal=0;startSize=0;swimlaneHead=0;swimlaneBody=0;fillColor=none;collapsible=0;dropTarget=0;points=[[0,0.5],[1,0.5]];portConstraint=eastwest;top=0;left=0;right=0;bottom=0;" vertex="1" parent="11">
          <mxGeometry y="43" width="143" height="21" as="geometry" />
        </mxCell>
        <mxCell id="17" value="string" style="shape=partialRectangle;connectable=0;fillColor=none;top=0;left=0;bottom=0;right=0;align=left;spacingLeft=2;overflow=hidden;fontSize=11;" vertex="1" parent="16">
          <mxGeometry width="36" height="21" as="geometry" />
        </mxCell>
        <mxCell id="18" value="category_name" style="shape=partialRectangle;connectable=0;fillColor=none;top=0;left=0;bottom=0;right=0;align=left;spacingLeft=2;overflow=hidden;fontSize=11;" vertex="1" parent="16">
          <mxGeometry width="85" height="21" as="geometry" />
        </mxCell>
        <mxCell id="19" value="" style="shape=partialRectangle;connectable=0;fillColor=none;top=0;left=0;bottom=0;right=0;align=left;spacingLeft=2;overflow=hidden;fontSize=11;" vertex="1" parent="16">
          <mxGeometry width="22" height="21" as="geometry" />
        </mxCell>
        <mxCell id="20" value="PRODUCT" style="shape=table;startSize=25;container=1;collapsible=0;childLayout=tableLayout;fixedRows=1;rowLines=1;fontStyle=1;align=center;resizeLast=1;" vertex="1" parent="1">
          <mxGeometry x="141" y="188" width="134" height="134" as="geometry" />
        </mxCell>
        <mxCell id="21" style="shape=tableRow;horizontal=0;startSize=0;swimlaneHead=0;swimlaneBody=0;fillColor=none;collapsible=0;dropTarget=0;points=[[0,0.5],[1,0.5]];portConstraint=eastwest;top=0;left=0;right=0;bottom=0;" vertex="1" parent="20">
          <mxGeometry y="22" width="134" height="22" as="geometry" />
        </mxCell>
        <mxCell id="22" value="int" style="shape=partialRectangle;connectable=0;fillColor=none;top=0;left=0;bottom=0;right=0;align=left;spacingLeft=2;overflow=hidden;fontSize=11;" vertex="1" parent="21">
          <mxGeometry width="36" height="22" as="geometry" />
        </mxCell>
        <mxCell id="23" value="product_id" style="shape=partialRectangle;connectable=0;fillColor=none;top=0;left=0;bottom=0;right=0;align=left;spacingLeft=2;overflow=hidden;fontSize=11;" vertex="1" parent="21">
          <mxGeometry width="76" height="22" as="geometry" />
        </mxCell>
        <mxCell id="24" value="PK" style="shape=partialRectangle;connectable=0;fillColor=none;top=0;left=0;bottom=0;right=0;align=left;spacingLeft=2;overflow=hidden;fontSize=11;" vertex="1" parent="21">
          <mxGeometry width="22" height="22" as="geometry" />
        </mxCell>
        <mxCell id="25" style="shape=tableRow;horizontal=0;startSize=0;swimlaneHead=0;swimlaneBody=0;fillColor=none;collapsible=0;dropTarget=0;points=[[0,0.5],[1,0.5]];portConstraint=eastwest;top=0;left=0;right=0;bottom=0;" vertex="1" parent="20">
          <mxGeometry y="43" width="134" height="22" as="geometry" />
        </mxCell>
        <mxCell id="26" value="string" style="shape=partialRectangle;connectable=0;fillColor=none;top=0;left=0;bottom=0;right=0;align=left;spacingLeft=2;overflow=hidden;fontSize=11;" vertex="1" parent="25">
          <mxGeometry width="36" height="22" as="geometry" />
        </mxCell>
        <mxCell id="27" value="product_name" style="shape=partialRectangle;connectable=0;fillColor=none;top=0;left=0;bottom=0;right=0;align=left;spacingLeft=2;overflow=hidden;fontSize=11;" vertex="1" parent="25">
          <mxGeometry width="76" height="22" as="geometry" />
        </mxCell>
        <mxCell id="28" value="" style="shape=partialRectangle;connectable=0;fillColor=none;top=0;left=0;bottom=0;right=0;align=left;spacingLeft=2;overflow=hidden;fontSize=11;" vertex="1" parent="25">
          <mxGeometry width="22" height="22" as="geometry" />
        </mxCell>
        <mxCell id="29" style="shape=tableRow;horizontal=0;startSize=0;swimlaneHead=0;swimlaneBody=0;fillColor=none;collapsible=0;dropTarget=0;points=[[0,0.5],[1,0.5]];portConstraint=eastwest;top=0;left=0;right=0;bottom=0;" vertex="1" parent="20">
          <mxGeometry y="65" width="134" height="22" as="geometry" />
        </mxCell>
        <mxCell id="30" value="int" style="shape=partialRectangle;connectable=0;fillColor=none;top=0;left=0;bottom=0;right=0;align=left;spacingLeft=2;overflow=hidden;fontSize=11;" vertex="1" parent="29">
          <mxGeometry width="36" height="22" as="geometry" />
        </mxCell>
        <mxCell id="31" value="brand_id" style="shape=partialRectangle;connectable=0;fillColor=none;top=0;left=0;bottom=0;right=0;align=left;spacingLeft=2;overflow=hidden;fontSize=11;" vertex="1" parent="29">
          <mxGeometry width="76" height="22" as="geometry" />
        </mxCell>
        <mxCell id="32" value="FK" style="shape=partialRectangle;connectable=0;fillColor=none;top=0;left=0;bottom=0;right=0;align=left;spacingLeft=2;overflow=hidden;fontSize=11;" vertex="1" parent="29">
          <mxGeometry width="22" height="22" as="geometry" />
        </mxCell>
        <mxCell id="33" style="shape=tableRow;horizontal=0;startSize=0;swimlaneHead=0;swimlaneBody=0;fillColor=none;collapsible=0;dropTarget=0;points=[[0,0.5],[1,0.5]];portConstraint=eastwest;top=0;left=0;right=0;bottom=0;" vertex="1" parent="20">
          <mxGeometry y="87" width="134" height="22" as="geometry" />
        </mxCell>
        <mxCell id="34" value="int" style="shape=partialRectangle;connectable=0;fillColor=none;top=0;left=0;bottom=0;right=0;align=left;spacingLeft=2;overflow=hidden;fontSize=11;" vertex="1" parent="33">
          <mxGeometry width="36" height="22" as="geometry" />
        </mxCell>
        <mxCell id="35" value="category_id" style="shape=partialRectangle;connectable=0;fillColor=none;top=0;left=0;bottom=0;right=0;align=left;spacingLeft=2;overflow=hidden;fontSize=11;" vertex="1" parent="33">
          <mxGeometry width="76" height="22" as="geometry" />
        </mxCell>
        <mxCell id="36" value="FK" style="shape=partialRectangle;connectable=0;fillColor=none;top=0;left=0;bottom=0;right=0;align=left;spacingLeft=2;overflow=hidden;fontSize=11;" vertex="1" parent="33">
          <mxGeometry width="22" height="22" as="geometry" />
        </mxCell>
        <mxCell id="37" style="shape=tableRow;horizontal=0;startSize=0;swimlaneHead=0;swimlaneBody=0;fillColor=none;collapsible=0;dropTarget=0;points=[[0,0.5],[1,0.5]];portConstraint=eastwest;top=0;left=0;right=0;bottom=0;" vertex="1" parent="20">
          <mxGeometry y="109" width="134" height="22" as="geometry" />
        </mxCell>
        <mxCell id="38" value="float" style="shape=partialRectangle;connectable=0;fillColor=none;top=0;left=0;bottom=0;right=0;align=left;spacingLeft=2;overflow=hidden;fontSize=11;" vertex="1" parent="37">
          <mxGeometry width="36" height="22" as="geometry" />
        </mxCell>
        <mxCell id="39" value="base_price" style="shape=partialRectangle;connectable=0;fillColor=none;top=0;left=0;bottom=0;right=0;align=left;spacingLeft=2;overflow=hidden;fontSize=11;" vertex="1" parent="37">
          <mxGeometry width="76" height="22" as="geometry" />
        </mxCell>
        <mxCell id="40" value="" style="shape=partialRectangle;connectable=0;fillColor=none;top=0;left=0;bottom=0;right=0;align=left;spacingLeft=2;overflow=hidden;fontSize=11;" vertex="1" parent="37">
          <mxGeometry width="22" height="22" as="geometry" />
        </mxCell>
        <mxCell id="41" value="PRODUCT_IMAGE" style="shape=table;startSize=25;container=1;collapsible=0;childLayout=tableLayout;fixedRows=1;rowLines=1;fontStyle=1;align=center;resizeLast=1;" vertex="1" parent="1">
          <mxGeometry x="89" y="454" width="121" height="90" as="geometry" />
        </mxCell>
        <mxCell id="42" style="shape=tableRow;horizontal=0;startSize=0;swimlaneHead=0;swimlaneBody=0;fillColor=none;collapsible=0;dropTarget=0;points=[[0,0.5],[1,0.5]];portConstraint=eastwest;top=0;left=0;right=0;bottom=0;" vertex="1" parent="41">
          <mxGeometry y="22" width="121" height="22" as="geometry" />
        </mxCell>
        <mxCell id="43" value="int" style="shape=partialRectangle;connectable=0;fillColor=none;top=0;left=0;bottom=0;right=0;align=left;spacingLeft=2;overflow=hidden;fontSize=11;" vertex="1" parent="42">
          <mxGeometry width="36" height="22" as="geometry" />
        </mxCell>
        <mxCell id="44" value="image_id" style="shape=partialRectangle;connectable=0;fillColor=none;top=0;left=0;bottom=0;right=0;align=left;spacingLeft=2;overflow=hidden;fontSize=11;" vertex="1" parent="42">
          <mxGeometry width="63" height="22" as="geometry" />
        </mxCell>
        <mxCell id="45" value="PK" style="shape=partialRectangle;connectable=0;fillColor=none;top=0;left=0;bottom=0;right=0;align=left;spacingLeft=2;overflow=hidden;fontSize=11;" vertex="1" parent="42">
          <mxGeometry width="22" height="22" as="geometry" />
        </mxCell>
        <mxCell id="46" style="shape=tableRow;horizontal=0;startSize=0;swimlaneHead=0;swimlaneBody=0;fillColor=none;collapsible=0;dropTarget=0;points=[[0,0.5],[1,0.5]];portConstraint=eastwest;top=0;left=0;right=0;bottom=0;" vertex="1" parent="41">
          <mxGeometry y="43" width="121" height="22" as="geometry" />
        </mxCell>
        <mxCell id="47" value="int" style="shape=partialRectangle;connectable=0;fillColor=none;top=0;left=0;bottom=0;right=0;align=left;spacingLeft=2;overflow=hidden;fontSize=11;" vertex="1" parent="46">
          <mxGeometry width="36" height="22" as="geometry" />
        </mxCell>
        <mxCell id="48" value="product_id" style="shape=partialRectangle;connectable=0;fillColor=none;top=0;left=0;bottom=0;right=0;align=left;spacingLeft=2;overflow=hidden;fontSize=11;" vertex="1" parent="46">
          <mxGeometry width="63" height="22" as="geometry" />
        </mxCell>
        <mxCell id="49" value="FK" style="shape=partialRectangle;connectable=0;fillColor=none;top=0;left=0;bottom=0;right=0;align=left;spacingLeft=2;overflow=hidden;fontSize=11;" vertex="1" parent="46">
          <mxGeometry width="22" height="22" as="geometry" />
        </mxCell>
        <mxCell id="50" style="shape=tableRow;horizontal=0;startSize=0;swimlaneHead=0;swimlaneBody=0;fillColor=none;collapsible=0;dropTarget=0;points=[[0,0.5],[1,0.5]];portConstraint=eastwest;top=0;left=0;right=0;bottom=0;" vertex="1" parent="41">
          <mxGeometry y="65" width="121" height="22" as="geometry" />
        </mxCell>
        <mxCell id="51" value="string" style="shape=partialRectangle;connectable=0;fillColor=none;top=0;left=0;bottom=0;right=0;align=left;spacingLeft=2;overflow=hidden;fontSize=11;" vertex="1" parent="50">
          <mxGeometry width="36" height="22" as="geometry" />
        </mxCell>
        <mxCell id="52" value="image_url" style="shape=partialRectangle;connectable=0;fillColor=none;top=0;left=0;bottom=0;right=0;align=left;spacingLeft=2;overflow=hidden;fontSize=11;" vertex="1" parent="50">
          <mxGeometry width="63" height="22" as="geometry" />
        </mxCell>
        <mxCell id="53" value="" style="shape=partialRectangle;connectable=0;fillColor=none;top=0;left=0;bottom=0;right=0;align=left;spacingLeft=2;overflow=hidden;fontSize=11;" vertex="1" parent="50">
          <mxGeometry width="22" height="22" as="geometry" />
        </mxCell>
        <mxCell id="54" value="COLOR" style="shape=table;startSize=25;container=1;collapsible=0;childLayout=tableLayout;fixedRows=1;rowLines=1;fontStyle=1;align=center;resizeLast=1;" vertex="1" parent="1">
          <mxGeometry x="375" y="221" width="122" height="68" as="geometry" />
        </mxCell>
        <mxCell id="55" style="shape=tableRow;horizontal=0;startSize=0;swimlaneHead=0;swimlaneBody=0;fillColor=none;collapsible=0;dropTarget=0;points=[[0,0.5],[1,0.5]];portConstraint=eastwest;top=0;left=0;right=0;bottom=0;" vertex="1" parent="54">
          <mxGeometry y="21" width="122" height="21" as="geometry" />
        </mxCell>
        <mxCell id="56" value="int" style="shape=partialRectangle;connectable=0;fillColor=none;top=0;left=0;bottom=0;right=0;align=left;spacingLeft=2;overflow=hidden;fontSize=11;" vertex="1" parent="55">
          <mxGeometry width="36" height="21" as="geometry" />
        </mxCell>
        <mxCell id="57" value="color_id" style="shape=partialRectangle;connectable=0;fillColor=none;top=0;left=0;bottom=0;right=0;align=left;spacingLeft=2;overflow=hidden;fontSize=11;" vertex="1" parent="55">
          <mxGeometry width="64" height="21" as="geometry" />
        </mxCell>
        <mxCell id="58" value="PK" style="shape=partialRectangle;connectable=0;fillColor=none;top=0;left=0;bottom=0;right=0;align=left;spacingLeft=2;overflow=hidden;fontSize=11;" vertex="1" parent="55">
          <mxGeometry width="22" height="21" as="geometry" />
        </mxCell>
        <mxCell id="59" style="shape=tableRow;horizontal=0;startSize=0;swimlaneHead=0;swimlaneBody=0;fillColor=none;collapsible=0;dropTarget=0;points=[[0,0.5],[1,0.5]];portConstraint=eastwest;top=0;left=0;right=0;bottom=0;" vertex="1" parent="54">
          <mxGeometry y="43" width="122" height="21" as="geometry" />
        </mxCell>
        <mxCell id="60" value="string" style="shape=partialRectangle;connectable=0;fillColor=none;top=0;left=0;bottom=0;right=0;align=left;spacingLeft=2;overflow=hidden;fontSize=11;" vertex="1" parent="59">
          <mxGeometry width="36" height="21" as="geometry" />
        </mxCell>
        <mxCell id="61" value="color_name" style="shape=partialRectangle;connectable=0;fillColor=none;top=0;left=0;bottom=0;right=0;align=left;spacingLeft=2;overflow=hidden;fontSize=11;" vertex="1" parent="59">
          <mxGeometry width="64" height="21" as="geometry" />
        </mxCell>
        <mxCell id="62" value="" style="shape=partialRectangle;connectable=0;fillColor=none;top=0;left=0;bottom=0;right=0;align=left;spacingLeft=2;overflow=hidden;fontSize=11;" vertex="1" parent="59">
          <mxGeometry width="22" height="21" as="geometry" />
        </mxCell>
        <mxCell id="63" value="SIZE_CATEGORY" style="shape=table;startSize=25;container=1;collapsible=0;childLayout=tableLayout;fixedRows=1;rowLines=1;fontStyle=1;align=center;resizeLast=1;" vertex="1" parent="1">
          <mxGeometry x="597" y="20" width="154" height="68" as="geometry" />
        </mxCell>
        <mxCell id="64" style="shape=tableRow;horizontal=0;startSize=0;swimlaneHead=0;swimlaneBody=0;fillColor=none;collapsible=0;dropTarget=0;points=[[0,0.5],[1,0.5]];portConstraint=eastwest;top=0;left=0;right=0;bottom=0;" vertex="1" parent="63">
          <mxGeometry y="21" width="145" height="21" as="geometry" />
        </mxCell>
        <mxCell id="65" value="int" style="shape=partialRectangle;connectable=0;fillColor=none;top=0;left=0;bottom=0;right=0;align=left;spacingLeft=2;overflow=hidden;fontSize=11;" vertex="1" parent="64">
          <mxGeometry width="36" height="21" as="geometry" />
        </mxCell>
        <mxCell id="66" value="size_category_id" style="shape=partialRectangle;connectable=0;fillColor=none;top=0;left=0;bottom=0;right=0;align=left;spacingLeft=2;overflow=hidden;fontSize=11;" vertex="1" parent="64">
          <mxGeometry width="96" height="21" as="geometry" />
        </mxCell>
        <mxCell id="67" value="PK" style="shape=partialRectangle;connectable=0;fillColor=none;top=0;left=0;bottom=0;right=0;align=left;spacingLeft=2;overflow=hidden;fontSize=11;" vertex="1" parent="64">
          <mxGeometry width="22" height="21" as="geometry" />
        </mxCell>
        <mxCell id="68" style="shape=tableRow;horizontal=0;startSize=0;swimlaneHead=0;swimlaneBody=0;fillColor=none;collapsible=0;dropTarget=0;points=[[0,0.5],[1,0.5]];portConstraint=eastwest;top=0;left=0;right=0;bottom=0;" vertex="1" parent="63">
          <mxGeometry y="43" width="145" height="21" as="geometry" />
        </mxCell>
        <mxCell id="69" value="string" style="shape=partialRectangle;connectable=0;fillColor=none;top=0;left=0;bottom=0;right=0;align=left;spacingLeft=2;overflow=hidden;fontSize=11;" vertex="1" parent="68">
          <mxGeometry width="36" height="21" as="geometry" />
        </mxCell>
        <mxCell id="70" value="category_name" style="shape=partialRectangle;connectable=0;fillColor=none;top=0;left=0;bottom=0;right=0;align=left;spacingLeft=2;overflow=hidden;fontSize=11;" vertex="1" parent="68">
          <mxGeometry width="96" height="21" as="geometry" />
        </mxCell>
        <mxCell id="71" value="" style="shape=partialRectangle;connectable=0;fillColor=none;top=0;left=0;bottom=0;right=0;align=left;spacingLeft=2;overflow=hidden;fontSize=11;" vertex="1" parent="68">
          <mxGeometry width="22" height="21" as="geometry" />
        </mxCell>
        <mxCell id="72" value="SIZE_OPTION" style="shape=table;startSize=25;container=1;collapsible=0;childLayout=tableLayout;fixedRows=1;rowLines=1;fontStyle=1;align=center;resizeLast=1;" vertex="1" parent="1">
          <mxGeometry x="597" y="210" width="154" height="90" as="geometry" />
        </mxCell>
        <mxCell id="73" style="shape=tableRow;horizontal=0;startSize=0;swimlaneHead=0;swimlaneBody=0;fillColor=none;collapsible=0;dropTarget=0;points=[[0,0.5],[1,0.5]];portConstraint=eastwest;top=0;left=0;right=0;bottom=0;" vertex="1" parent="72">
          <mxGeometry y="22" width="145" height="22" as="geometry" />
        </mxCell>
        <mxCell id="74" value="int" style="shape=partialRectangle;connectable=0;fillColor=none;top=0;left=0;bottom=0;right=0;align=left;spacingLeft=2;overflow=hidden;fontSize=11;" vertex="1" parent="73">
          <mxGeometry width="36" height="22" as="geometry" />
        </mxCell>
        <mxCell id="75" value="size_id" style="shape=partialRectangle;connectable=0;fillColor=none;top=0;left=0;bottom=0;right=0;align=left;spacingLeft=2;overflow=hidden;fontSize=11;" vertex="1" parent="73">
          <mxGeometry width="96" height="22" as="geometry" />
        </mxCell>
        <mxCell id="76" value="PK" style="shape=partialRectangle;connectable=0;fillColor=none;top=0;left=0;bottom=0;right=0;align=left;spacingLeft=2;overflow=hidden;fontSize=11;" vertex="1" parent="73">
          <mxGeometry width="22" height="22" as="geometry" />
        </mxCell>
        <mxCell id="77" style="shape=tableRow;horizontal=0;startSize=0;swimlaneHead=0;swimlaneBody=0;fillColor=none;collapsible=0;dropTarget=0;points=[[0,0.5],[1,0.5]];portConstraint=eastwest;top=0;left=0;right=0;bottom=0;" vertex="1" parent="72">
          <mxGeometry y="43" width="145" height="22" as="geometry" />
        </mxCell>
        <mxCell id="78" value="int" style="shape=partialRectangle;connectable=0;fillColor=none;top=0;left=0;bottom=0;right=0;align=left;spacingLeft=2;overflow=hidden;fontSize=11;" vertex="1" parent="77">
          <mxGeometry width="36" height="22" as="geometry" />
        </mxCell>
        <mxCell id="79" value="size_category_id" style="shape=partialRectangle;connectable=0;fillColor=none;top=0;left=0;bottom=0;right=0;align=left;spacingLeft=2;overflow=hidden;fontSize=11;" vertex="1" parent="77">
          <mxGeometry width="96" height="22" as="geometry" />
        </mxCell>
        <mxCell id="80" value="FK" style="shape=partialRectangle;connectable=0;fillColor=none;top=0;left=0;bottom=0;right=0;align=left;spacingLeft=2;overflow=hidden;fontSize=11;" vertex="1" parent="77">
          <mxGeometry width="22" height="22" as="geometry" />
        </mxCell>
        <mxCell id="81" style="shape=tableRow;horizontal=0;startSize=0;swimlaneHead=0;swimlaneBody=0;fillColor=none;collapsible=0;dropTarget=0;points=[[0,0.5],[1,0.5]];portConstraint=eastwest;top=0;left=0;right=0;bottom=0;" vertex="1" parent="72">
          <mxGeometry y="65" width="145" height="22" as="geometry" />
        </mxCell>
        <mxCell id="82" value="string" style="shape=partialRectangle;connectable=0;fillColor=none;top=0;left=0;bottom=0;right=0;align=left;spacingLeft=2;overflow=hidden;fontSize=11;" vertex="1" parent="81">
          <mxGeometry width="36" height="22" as="geometry" />
        </mxCell>
        <mxCell id="83" value="size_value" style="shape=partialRectangle;connectable=0;fillColor=none;top=0;left=0;bottom=0;right=0;align=left;spacingLeft=2;overflow=hidden;fontSize=11;" vertex="1" parent="81">
          <mxGeometry width="96" height="22" as="geometry" />
        </mxCell>
        <mxCell id="84" value="" style="shape=partialRectangle;connectable=0;fillColor=none;top=0;left=0;bottom=0;right=0;align=left;spacingLeft=2;overflow=hidden;fontSize=11;" vertex="1" parent="81">
          <mxGeometry width="22" height="22" as="geometry" />
        </mxCell>
        <mxCell id="85" value="PRODUCT_VARIATION" style="shape=table;startSize=25;container=1;collapsible=0;childLayout=tableLayout;fixedRows=1;rowLines=1;fontStyle=1;align=center;resizeLast=1;" vertex="1" parent="1">
          <mxGeometry x="358" y="432" width="148" height="134" as="geometry" />
        </mxCell>
        <mxCell id="86" style="shape=tableRow;horizontal=0;startSize=0;swimlaneHead=0;swimlaneBody=0;fillColor=none;collapsible=0;dropTarget=0;points=[[0,0.5],[1,0.5]];portConstraint=eastwest;top=0;left=0;right=0;bottom=0;" vertex="1" parent="85">
          <mxGeometry y="22" width="143" height="22" as="geometry" />
        </mxCell>
        <mxCell id="87" value="int" style="shape=partialRectangle;connectable=0;fillColor=none;top=0;left=0;bottom=0;right=0;align=left;spacingLeft=2;overflow=hidden;fontSize=11;" vertex="1" parent="86">
          <mxGeometry width="30" height="22" as="geometry" />
        </mxCell>
        <mxCell id="88" value="variation_id" style="shape=partialRectangle;connectable=0;fillColor=none;top=0;left=0;bottom=0;right=0;align=left;spacingLeft=2;overflow=hidden;fontSize=11;" vertex="1" parent="86">
          <mxGeometry width="96" height="22" as="geometry" />
        </mxCell>
        <mxCell id="89" value="PK" style="shape=partialRectangle;connectable=0;fillColor=none;top=0;left=0;bottom=0;right=0;align=left;spacingLeft=2;overflow=hidden;fontSize=11;" vertex="1" parent="86">
          <mxGeometry width="22" height="22" as="geometry" />
        </mxCell>
        <mxCell id="90" style="shape=tableRow;horizontal=0;startSize=0;swimlaneHead=0;swimlaneBody=0;fillColor=none;collapsible=0;dropTarget=0;points=[[0,0.5],[1,0.5]];portConstraint=eastwest;top=0;left=0;right=0;bottom=0;" vertex="1" parent="85">
          <mxGeometry y="43" width="143" height="22" as="geometry" />
        </mxCell>
        <mxCell id="91" value="int" style="shape=partialRectangle;connectable=0;fillColor=none;top=0;left=0;bottom=0;right=0;align=left;spacingLeft=2;overflow=hidden;fontSize=11;" vertex="1" parent="90">
          <mxGeometry width="30" height="22" as="geometry" />
        </mxCell>
        <mxCell id="92" value="product_id" style="shape=partialRectangle;connectable=0;fillColor=none;top=0;left=0;bottom=0;right=0;align=left;spacingLeft=2;overflow=hidden;fontSize=11;" vertex="1" parent="90">
          <mxGeometry width="96" height="22" as="geometry" />
        </mxCell>
        <mxCell id="93" value="FK" style="shape=partialRectangle;connectable=0;fillColor=none;top=0;left=0;bottom=0;right=0;align=left;spacingLeft=2;overflow=hidden;fontSize=11;" vertex="1" parent="90">
          <mxGeometry width="22" height="22" as="geometry" />
        </mxCell>
        <mxCell id="94" style="shape=tableRow;horizontal=0;startSize=0;swimlaneHead=0;swimlaneBody=0;fillColor=none;collapsible=0;dropTarget=0;points=[[0,0.5],[1,0.5]];portConstraint=eastwest;top=0;left=0;right=0;bottom=0;" vertex="1" parent="85">
          <mxGeometry y="65" width="143" height="22" as="geometry" />
        </mxCell>
        <mxCell id="95" value="int" style="shape=partialRectangle;connectable=0;fillColor=none;top=0;left=0;bottom=0;right=0;align=left;spacingLeft=2;overflow=hidden;fontSize=11;" vertex="1" parent="94">
          <mxGeometry width="30" height="22" as="geometry" />
        </mxCell>
        <mxCell id="96" value="color_id" style="shape=partialRectangle;connectable=0;fillColor=none;top=0;left=0;bottom=0;right=0;align=left;spacingLeft=2;overflow=hidden;fontSize=11;" vertex="1" parent="94">
          <mxGeometry width="96" height="22" as="geometry" />
        </mxCell>
        <mxCell id="97" value="FK" style="shape=partialRectangle;connectable=0;fillColor=none;top=0;left=0;bottom=0;right=0;align=left;spacingLeft=2;overflow=hidden;fontSize=11;" vertex="1" parent="94">
          <mxGeometry width="22" height="22" as="geometry" />
        </mxCell>
        <mxCell id="98" style="shape=tableRow;horizontal=0;startSize=0;swimlaneHead=0;swimlaneBody=0;fillColor=none;collapsible=0;dropTarget=0;points=[[0,0.5],[1,0.5]];portConstraint=eastwest;top=0;left=0;right=0;bottom=0;" vertex="1" parent="85">
          <mxGeometry y="87" width="143" height="22" as="geometry" />
        </mxCell>
        <mxCell id="99" value="int" style="shape=partialRectangle;connectable=0;fillColor=none;top=0;left=0;bottom=0;right=0;align=left;spacingLeft=2;overflow=hidden;fontSize=11;" vertex="1" parent="98">
          <mxGeometry width="30" height="22" as="geometry" />
        </mxCell>
        <mxCell id="100" value="size_id" style="shape=partialRectangle;connectable=0;fillColor=none;top=0;left=0;bottom=0;right=0;align=left;spacingLeft=2;overflow=hidden;fontSize=11;" vertex="1" parent="98">
          <mxGeometry width="96" height="22" as="geometry" />
        </mxCell>
        <mxCell id="101" value="FK" style="shape=partialRectangle;connectable=0;fillColor=none;top=0;left=0;bottom=0;right=0;align=left;spacingLeft=2;overflow=hidden;fontSize=11;" vertex="1" parent="98">
          <mxGeometry width="22" height="22" as="geometry" />
        </mxCell>
        <mxCell id="102" style="shape=tableRow;horizontal=0;startSize=0;swimlaneHead=0;swimlaneBody=0;fillColor=none;collapsible=0;dropTarget=0;points=[[0,0.5],[1,0.5]];portConstraint=eastwest;top=0;left=0;right=0;bottom=0;" vertex="1" parent="85">
          <mxGeometry y="109" width="143" height="22" as="geometry" />
        </mxCell>
        <mxCell id="103" value="float" style="shape=partialRectangle;connectable=0;fillColor=none;top=0;left=0;bottom=0;right=0;align=left;spacingLeft=2;overflow=hidden;fontSize=11;" vertex="1" parent="102">
          <mxGeometry width="30" height="22" as="geometry" />
        </mxCell>
        <mxCell id="104" value="additional_price" style="shape=partialRectangle;connectable=0;fillColor=none;top=0;left=0;bottom=0;right=0;align=left;spacingLeft=2;overflow=hidden;fontSize=11;" vertex="1" parent="102">
          <mxGeometry width="96" height="22" as="geometry" />
        </mxCell>
        <mxCell id="105" value="" style="shape=partialRectangle;connectable=0;fillColor=none;top=0;left=0;bottom=0;right=0;align=left;spacingLeft=2;overflow=hidden;fontSize=11;" vertex="1" parent="102">
          <mxGeometry width="22" height="22" as="geometry" />
        </mxCell>
        <mxCell id="106" value="PRODUCT_ITEM" style="shape=table;startSize=25;container=1;collapsible=0;childLayout=tableLayout;fixedRows=1;rowLines=1;fontStyle=1;align=center;resizeLast=1;" vertex="1" parent="1">
          <mxGeometry x="361" y="677" width="142" height="112" as="geometry" />
        </mxCell>
        <mxCell id="107" style="shape=tableRow;horizontal=0;startSize=0;swimlaneHead=0;swimlaneBody=0;fillColor=none;collapsible=0;dropTarget=0;points=[[0,0.5],[1,0.5]];portConstraint=eastwest;top=0;left=0;right=0;bottom=0;" vertex="1" parent="106">
          <mxGeometry y="22" width="136" height="22" as="geometry" />
        </mxCell>
        <mxCell id="108" value="int" style="shape=partialRectangle;connectable=0;fillColor=none;top=0;left=0;bottom=0;right=0;align=left;spacingLeft=2;overflow=hidden;fontSize=11;" vertex="1" parent="107">
          <mxGeometry width="36" height="22" as="geometry" />
        </mxCell>
        <mxCell id="109" value="item_id" style="shape=partialRectangle;connectable=0;fillColor=none;top=0;left=0;bottom=0;right=0;align=left;spacingLeft=2;overflow=hidden;fontSize=11;" vertex="1" parent="107">
          <mxGeometry width="84" height="22" as="geometry" />
        </mxCell>
        <mxCell id="110" value="PK" style="shape=partialRectangle;connectable=0;fillColor=none;top=0;left=0;bottom=0;right=0;align=left;spacingLeft=2;overflow=hidden;fontSize=11;" vertex="1" parent="107">
          <mxGeometry width="22" height="22" as="geometry" />
        </mxCell>
        <mxCell id="111" style="shape=tableRow;horizontal=0;startSize=0;swimlaneHead=0;swimlaneBody=0;fillColor=none;collapsible=0;dropTarget=0;points=[[0,0.5],[1,0.5]];portConstraint=eastwest;top=0;left=0;right=0;bottom=0;" vertex="1" parent="106">
          <mxGeometry y="43" width="136" height="22" as="geometry" />
        </mxCell>
        <mxCell id="112" value="int" style="shape=partialRectangle;connectable=0;fillColor=none;top=0;left=0;bottom=0;right=0;align=left;spacingLeft=2;overflow=hidden;fontSize=11;" vertex="1" parent="111">
          <mxGeometry width="36" height="22" as="geometry" />
        </mxCell>
        <mxCell id="113" value="variation_id" style="shape=partialRectangle;connectable=0;fillColor=none;top=0;left=0;bottom=0;right=0;align=left;spacingLeft=2;overflow=hidden;fontSize=11;" vertex="1" parent="111">
          <mxGeometry width="84" height="22" as="geometry" />
        </mxCell>
        <mxCell id="114" value="FK" style="shape=partialRectangle;connectable=0;fillColor=none;top=0;left=0;bottom=0;right=0;align=left;spacingLeft=2;overflow=hidden;fontSize=11;" vertex="1" parent="111">
          <mxGeometry width="22" height="22" as="geometry" />
        </mxCell>
        <mxCell id="115" style="shape=tableRow;horizontal=0;startSize=0;swimlaneHead=0;swimlaneBody=0;fillColor=none;collapsible=0;dropTarget=0;points=[[0,0.5],[1,0.5]];portConstraint=eastwest;top=0;left=0;right=0;bottom=0;" vertex="1" parent="106">
          <mxGeometry y="65" width="136" height="22" as="geometry" />
        </mxCell>
        <mxCell id="116" value="int" style="shape=partialRectangle;connectable=0;fillColor=none;top=0;left=0;bottom=0;right=0;align=left;spacingLeft=2;overflow=hidden;fontSize=11;" vertex="1" parent="115">
          <mxGeometry width="36" height="22" as="geometry" />
        </mxCell>
        <mxCell id="117" value="stock_quantity" style="shape=partialRectangle;connectable=0;fillColor=none;top=0;left=0;bottom=0;right=0;align=left;spacingLeft=2;overflow=hidden;fontSize=11;" vertex="1" parent="115">
          <mxGeometry width="84" height="22" as="geometry" />
        </mxCell>
        <mxCell id="118" value="" style="shape=partialRectangle;connectable=0;fillColor=none;top=0;left=0;bottom=0;right=0;align=left;spacingLeft=2;overflow=hidden;fontSize=11;" vertex="1" parent="115">
          <mxGeometry width="22" height="22" as="geometry" />
        </mxCell>
        <mxCell id="119" style="shape=tableRow;horizontal=0;startSize=0;swimlaneHead=0;swimlaneBody=0;fillColor=none;collapsible=0;dropTarget=0;points=[[0,0.5],[1,0.5]];portConstraint=eastwest;top=0;left=0;right=0;bottom=0;" vertex="1" parent="106">
          <mxGeometry y="87" width="136" height="22" as="geometry" />
        </mxCell>
        <mxCell id="120" value="string" style="shape=partialRectangle;connectable=0;fillColor=none;top=0;left=0;bottom=0;right=0;align=left;spacingLeft=2;overflow=hidden;fontSize=11;" vertex="1" parent="119">
          <mxGeometry width="36" height="22" as="geometry" />
        </mxCell>
        <mxCell id="121" value="sku" style="shape=partialRectangle;connectable=0;fillColor=none;top=0;left=0;bottom=0;right=0;align=left;spacingLeft=2;overflow=hidden;fontSize=11;" vertex="1" parent="119">
          <mxGeometry width="84" height="22" as="geometry" />
        </mxCell>
        <mxCell id="122" value="" style="shape=partialRectangle;connectable=0;fillColor=none;top=0;left=0;bottom=0;right=0;align=left;spacingLeft=2;overflow=hidden;fontSize=11;" vertex="1" parent="119">
          <mxGeometry width="22" height="22" as="geometry" />
        </mxCell>
        <mxCell id="123" value="ATTRIBUTE_CATEGORY" style="shape=table;startSize=25;container=1;collapsible=0;childLayout=tableLayout;fixedRows=1;rowLines=1;fontStyle=1;align=center;resizeLast=1;" vertex="1" parent="1">
          <mxGeometry x="841" y="221" width="184" height="68" as="geometry" />
        </mxCell>
        <mxCell id="124" style="shape=tableRow;horizontal=0;startSize=0;swimlaneHead=0;swimlaneBody=0;fillColor=none;collapsible=0;dropTarget=0;points=[[0,0.5],[1,0.5]];portConstraint=eastwest;top=0;left=0;right=0;bottom=0;" vertex="1" parent="123">
          <mxGeometry y="21" width="168" height="21" as="geometry" />
        </mxCell>
        <mxCell id="125" value="int" style="shape=partialRectangle;connectable=0;fillColor=none;top=0;left=0;bottom=0;right=0;align=left;spacingLeft=2;overflow=hidden;fontSize=11;" vertex="1" parent="124">
          <mxGeometry width="36" height="21" as="geometry" />
        </mxCell>
        <mxCell id="126" value="attribute_category_id" style="shape=partialRectangle;connectable=0;fillColor=none;top=0;left=0;bottom=0;right=0;align=left;spacingLeft=2;overflow=hidden;fontSize=11;" vertex="1" parent="124">
          <mxGeometry width="126" height="21" as="geometry" />
        </mxCell>
        <mxCell id="127" value="PK" style="shape=partialRectangle;connectable=0;fillColor=none;top=0;left=0;bottom=0;right=0;align=left;spacingLeft=2;overflow=hidden;fontSize=11;" vertex="1" parent="124">
          <mxGeometry width="22" height="21" as="geometry" />
        </mxCell>
        <mxCell id="128" style="shape=tableRow;horizontal=0;startSize=0;swimlaneHead=0;swimlaneBody=0;fillColor=none;collapsible=0;dropTarget=0;points=[[0,0.5],[1,0.5]];portConstraint=eastwest;top=0;left=0;right=0;bottom=0;" vertex="1" parent="123">
          <mxGeometry y="43" width="168" height="21" as="geometry" />
        </mxCell>
        <mxCell id="129" value="string" style="shape=partialRectangle;connectable=0;fillColor=none;top=0;left=0;bottom=0;right=0;align=left;spacingLeft=2;overflow=hidden;fontSize=11;" vertex="1" parent="128">
          <mxGeometry width="36" height="21" as="geometry" />
        </mxCell>
        <mxCell id="130" value="category_name" style="shape=partialRectangle;connectable=0;fillColor=none;top=0;left=0;bottom=0;right=0;align=left;spacingLeft=2;overflow=hidden;fontSize=11;" vertex="1" parent="128">
          <mxGeometry width="126" height="21" as="geometry" />
        </mxCell>
        <mxCell id="131" value="" style="shape=partialRectangle;connectable=0;fillColor=none;top=0;left=0;bottom=0;right=0;align=left;spacingLeft=2;overflow=hidden;fontSize=11;" vertex="1" parent="128">
          <mxGeometry width="22" height="21" as="geometry" />
        </mxCell>
        <mxCell id="132" value="ATTRIBUTE_TYPE" style="shape=table;startSize=25;container=1;collapsible=0;childLayout=tableLayout;fixedRows=1;rowLines=1;fontStyle=1;align=center;resizeLast=1;" vertex="1" parent="1">
          <mxGeometry x="1110" y="221" width="160" height="68" as="geometry" />
        </mxCell>
        <mxCell id="133" style="shape=tableRow;horizontal=0;startSize=0;swimlaneHead=0;swimlaneBody=0;fillColor=none;collapsible=0;dropTarget=0;points=[[0,0.5],[1,0.5]];portConstraint=eastwest;top=0;left=0;right=0;bottom=0;" vertex="1" parent="132">
          <mxGeometry y="21" width="149" height="21" as="geometry" />
        </mxCell>
        <mxCell id="134" value="int" style="shape=partialRectangle;connectable=0;fillColor=none;top=0;left=0;bottom=0;right=0;align=left;spacingLeft=2;overflow=hidden;fontSize=11;" vertex="1" parent="133">
          <mxGeometry width="36" height="21" as="geometry" />
        </mxCell>
        <mxCell id="135" value="attribute_type_id" style="shape=partialRectangle;connectable=0;fillColor=none;top=0;left=0;bottom=0;right=0;align=left;spacingLeft=2;overflow=hidden;fontSize=11;" vertex="1" parent="133">
          <mxGeometry width="102" height="21" as="geometry" />
        </mxCell>
        <mxCell id="136" value="PK" style="shape=partialRectangle;connectable=0;fillColor=none;top=0;left=0;bottom=0;right=0;align=left;spacingLeft=2;overflow=hidden;fontSize=11;" vertex="1" parent="133">
          <mxGeometry width="22" height="21" as="geometry" />
        </mxCell>
        <mxCell id="137" style="shape=tableRow;horizontal=0;startSize=0;swimlaneHead=0;swimlaneBody=0;fillColor=none;collapsible=0;dropTarget=0;points=[[0,0.5],[1,0.5]];portConstraint=eastwest;top=0;left=0;right=0;bottom=0;" vertex="1" parent="132">
          <mxGeometry y="43" width="149" height="21" as="geometry" />
        </mxCell>
        <mxCell id="138" value="string" style="shape=partialRectangle;connectable=0;fillColor=none;top=0;left=0;bottom=0;right=0;align=left;spacingLeft=2;overflow=hidden;fontSize=11;" vertex="1" parent="137">
          <mxGeometry width="36" height="21" as="geometry" />
        </mxCell>
        <mxCell id="139" value="type_name" style="shape=partialRectangle;connectable=0;fillColor=none;top=0;left=0;bottom=0;right=0;align=left;spacingLeft=2;overflow=hidden;fontSize=11;" vertex="1" parent="137">
          <mxGeometry width="102" height="21" as="geometry" />
        </mxCell>
        <mxCell id="140" value="" style="shape=partialRectangle;connectable=0;fillColor=none;top=0;left=0;bottom=0;right=0;align=left;spacingLeft=2;overflow=hidden;fontSize=11;" vertex="1" parent="137">
          <mxGeometry width="22" height="21" as="geometry" />
        </mxCell>
        <mxCell id="141" value="PRODUCT_ATTRIBUTE" style="shape=table;startSize=25;container=1;collapsible=0;childLayout=tableLayout;fixedRows=1;rowLines=1;fontStyle=1;align=center;resizeLast=1;" vertex="1" parent="1">
          <mxGeometry x="907" y="421" width="184" height="156" as="geometry" />
        </mxCell>
        <mxCell id="142" style="shape=tableRow;horizontal=0;startSize=0;swimlaneHead=0;swimlaneBody=0;fillColor=none;collapsible=0;dropTarget=0;points=[[0,0.5],[1,0.5]];portConstraint=eastwest;top=0;left=0;right=0;bottom=0;" vertex="1" parent="141">
          <mxGeometry y="22" width="168" height="22" as="geometry" />
        </mxCell>
        <mxCell id="143" value="int" style="shape=partialRectangle;connectable=0;fillColor=none;top=0;left=0;bottom=0;right=0;align=left;spacingLeft=2;overflow=hidden;fontSize=11;" vertex="1" parent="142">
          <mxGeometry width="36" height="22" as="geometry" />
        </mxCell>
        <mxCell id="144" value="attribute_id" style="shape=partialRectangle;connectable=0;fillColor=none;top=0;left=0;bottom=0;right=0;align=left;spacingLeft=2;overflow=hidden;fontSize=11;" vertex="1" parent="142">
          <mxGeometry width="126" height="22" as="geometry" />
        </mxCell>
        <mxCell id="145" value="PK" style="shape=partialRectangle;connectable=0;fillColor=none;top=0;left=0;bottom=0;right=0;align=left;spacingLeft=2;overflow=hidden;fontSize=11;" vertex="1" parent="142">
          <mxGeometry width="22" height="22" as="geometry" />
        </mxCell>
        <mxCell id="146" style="shape=tableRow;horizontal=0;startSize=0;swimlaneHead=0;swimlaneBody=0;fillColor=none;collapsible=0;dropTarget=0;points=[[0,0.5],[1,0.5]];portConstraint=eastwest;top=0;left=0;right=0;bottom=0;" vertex="1" parent="141">
          <mxGeometry y="44" width="168" height="22" as="geometry" />
        </mxCell>
        <mxCell id="147" value="int" style="shape=partialRectangle;connectable=0;fillColor=none;top=0;left=0;bottom=0;right=0;align=left;spacingLeft=2;overflow=hidden;fontSize=11;" vertex="1" parent="146">
          <mxGeometry width="36" height="22" as="geometry" />
        </mxCell>
        <mxCell id="148" value="product_id" style="shape=partialRectangle;connectable=0;fillColor=none;top=0;left=0;bottom=0;right=0;align=left;spacingLeft=2;overflow=hidden;fontSize=11;" vertex="1" parent="146">
          <mxGeometry width="126" height="22" as="geometry" />
        </mxCell>
        <mxCell id="149" value="FK" style="shape=partialRectangle;connectable=0;fillColor=none;top=0;left=0;bottom=0;right=0;align=left;spacingLeft=2;overflow=hidden;fontSize=11;" vertex="1" parent="146">
          <mxGeometry width="22" height="22" as="geometry" />
        </mxCell>
        <mxCell id="150" style="shape=tableRow;horizontal=0;startSize=0;swimlaneHead=0;swimlaneBody=0;fillColor=none;collapsible=0;dropTarget=0;points=[[0,0.5],[1,0.5]];portConstraint=eastwest;top=0;left=0;right=0;bottom=0;" vertex="1" parent="141">
          <mxGeometry y="65" width="168" height="22" as="geometry" />
        </mxCell>
        <mxCell id="151" value="int" style="shape=partialRectangle;connectable=0;fillColor=none;top=0;left=0;bottom=0;right=0;align=left;spacingLeft=2;overflow=hidden;fontSize=11;" vertex="1" parent="150">
          <mxGeometry width="36" height="22" as="geometry" />
        </mxCell>
        <mxCell id="152" value="attribute_category_id" style="shape=partialRectangle;connectable=0;fillColor=none;top=0;left=0;bottom=0;right=0;align=left;spacingLeft=2;overflow=hidden;fontSize=11;" vertex="1" parent="150">
          <mxGeometry width="126" height="22" as="geometry" />
        </mxCell>
        <mxCell id="153" value="FK" style="shape=partialRectangle;connectable=0;fillColor=none;top=0;left=0;bottom=0;right=0;align=left;spacingLeft=2;overflow=hidden;fontSize=11;" vertex="1" parent="150">
          <mxGeometry width="22" height="22" as="geometry" />
        </mxCell>
        <mxCell id="154" style="shape=tableRow;horizontal=0;startSize=0;swimlaneHead=0;swimlaneBody=0;fillColor=none;collapsible=0;dropTarget=0;points=[[0,0.5],[1,0.5]];portConstraint=eastwest;top=0;left=0;right=0;bottom=0;" vertex="1" parent="141">
          <mxGeometry y="87" width="168" height="22" as="geometry" />
        </mxCell>
        <mxCell id="155" value="int" style="shape=partialRectangle;connectable=0;fillColor=none;top=0;left=0;bottom=0;right=0;align=left;spacingLeft=2;overflow=hidden;fontSize=11;" vertex="1" parent="154">
          <mxGeometry width="36" height="22" as="geometry" />
        </mxCell>
        <mxCell id="156" value="attribute_type_id" style="shape=partialRectangle;connectable=0;fillColor=none;top=0;left=0;bottom=0;right=0;align=left;spacingLeft=2;overflow=hidden;fontSize=11;" vertex="1" parent="154">
          <mxGeometry width="126" height="22" as="geometry" />
        </mxCell>
        <mxCell id="157" value="FK" style="shape=partialRectangle;connectable=0;fillColor=none;top=0;left=0;bottom=0;right=0;align=left;spacingLeft=2;overflow=hidden;fontSize=11;" vertex="1" parent="154">
          <mxGeometry width="22" height="22" as="geometry" />
        </mxCell>
        <mxCell id="158" style="shape=tableRow;horizontal=0;startSize=0;swimlaneHead=0;swimlaneBody=0;fillColor=none;collapsible=0;dropTarget=0;points=[[0,0.5],[1,0.5]];portConstraint=eastwest;top=0;left=0;right=0;bottom=0;" vertex="1" parent="141">
          <mxGeometry y="109" width="168" height="22" as="geometry" />
        </mxCell>
        <mxCell id="159" value="string" style="shape=partialRectangle;connectable=0;fillColor=none;top=0;left=0;bottom=0;right=0;align=left;spacingLeft=2;overflow=hidden;fontSize=11;" vertex="1" parent="158">
          <mxGeometry width="36" height="22" as="geometry" />
        </mxCell>
        <mxCell id="160" value="attribute_name" style="shape=partialRectangle;connectable=0;fillColor=none;top=0;left=0;bottom=0;right=0;align=left;spacingLeft=2;overflow=hidden;fontSize=11;" vertex="1" parent="158">
          <mxGeometry width="126" height="22" as="geometry" />
        </mxCell>
        <mxCell id="161" value="" style="shape=partialRectangle;connectable=0;fillColor=none;top=0;left=0;bottom=0;right=0;align=left;spacingLeft=2;overflow=hidden;fontSize=11;" vertex="1" parent="158">
          <mxGeometry width="22" height="22" as="geometry" />
        </mxCell>
        <mxCell id="162" style="shape=tableRow;horizontal=0;startSize=0;swimlaneHead=0;swimlaneBody=0;fillColor=none;collapsible=0;dropTarget=0;points=[[0,0.5],[1,0.5]];portConstraint=eastwest;top=0;left=0;right=0;bottom=0;" vertex="1" parent="141">
          <mxGeometry y="131" width="168" height="22" as="geometry" />
        </mxCell>
        <mxCell id="163" value="string" style="shape=partialRectangle;connectable=0;fillColor=none;top=0;left=0;bottom=0;right=0;align=left;spacingLeft=2;overflow=hidden;fontSize=11;" vertex="1" parent="162">
          <mxGeometry width="36" height="22" as="geometry" />
        </mxCell>
        <mxCell id="164" value="attribute_value" style="shape=partialRectangle;connectable=0;fillColor=none;top=0;left=0;bottom=0;right=0;align=left;spacingLeft=2;overflow=hidden;fontSize=11;" vertex="1" parent="162">
          <mxGeometry width="126" height="22" as="geometry" />
        </mxCell>
        <mxCell id="165" value="" style="shape=partialRectangle;connectable=0;fillColor=none;top=0;left=0;bottom=0;right=0;align=left;spacingLeft=2;overflow=hidden;fontSize=11;" vertex="1" parent="162">
          <mxGeometry width="22" height="22" as="geometry" />
        </mxCell>
        <mxCell id="166" value="" style="curved=1;startArrow=ERmandOne;startSize=10;;endArrow=ERzeroToMany;endSize=10;;exitX=0.5;exitY=0.99;entryX=0;entryY=0.03;" edge="1" parent="1" source="2" target="20">
          <mxGeometry relative="1" as="geometry">
            <Array as="points">
              <mxPoint x="82" y="138" />
            </Array>
          </mxGeometry>
        </mxCell>
        <mxCell id="167" value="" style="curved=1;startArrow=ERmandOne;startSize=10;;endArrow=ERzeroToMany;endSize=10;;exitX=0.5;exitY=0.99;entryX=0.96;entryY=0;" edge="1" parent="1" source="11" target="20">
          <mxGeometry relative="1" as="geometry">
            <Array as="points">
              <mxPoint x="317" y="138" />
            </Array>
          </mxGeometry>
        </mxCell>
        <mxCell id="168" value="" style="curved=1;startArrow=ERmandOne;startSize=10;;endArrow=ERzeroToMany;endSize=10;;exitX=0.25;exitY=0.99;entryX=0.5;entryY=0;" edge="1" parent="1" source="20" target="41">
          <mxGeometry relative="1" as="geometry">
            <Array as="points">
              <mxPoint x="150" y="371" />
            </Array>
          </mxGeometry>
        </mxCell>
        <mxCell id="169" value="" style="curved=1;startArrow=ERmandOne;startSize=10;;endArrow=ERzeroToMany;endSize=10;;exitX=0.77;exitY=0.99;entryX=0;entryY=0.07;" edge="1" parent="1" source="20" target="85">
          <mxGeometry relative="1" as="geometry">
            <Array as="points">
              <mxPoint x="272" y="371" />
            </Array>
          </mxGeometry>
        </mxCell>
        <mxCell id="170" value="" style="curved=1;startArrow=ERmandOne;startSize=10;;endArrow=ERzeroToMany;endSize=10;;exitX=0.5;exitY=0.99;entryX=0.51;entryY=0;" edge="1" parent="1" source="54" target="85">
          <mxGeometry relative="1" as="geometry">
            <Array as="points">
              <mxPoint x="436" y="371" />
            </Array>
          </mxGeometry>
        </mxCell>
        <mxCell id="171" value="" style="curved=1;startArrow=ERmandOne;startSize=10;;endArrow=ERzeroToMany;endSize=10;;exitX=0.47;exitY=0.99;entryX=0.96;entryY=0.22;" edge="1" parent="1" source="72" target="85">
          <mxGeometry relative="1" as="geometry">
            <Array as="points">
              <mxPoint x="669" y="371" />
            </Array>
          </mxGeometry>
        </mxCell>
        <mxCell id="172" value="" style="curved=1;startArrow=ERmandOne;startSize=10;;endArrow=ERzeroToMany;endSize=10;;exitX=0.47;exitY=0.99;entryX=0.47;entryY=0;" edge="1" parent="1" source="63" target="72">
          <mxGeometry relative="1" as="geometry">
            <Array as="points" />
          </mxGeometry>
        </mxCell>
        <mxCell id="173" value="" style="curved=1;startArrow=ERmandOne;startSize=10;;endArrow=ERzeroToMany;endSize=10;;exitX=0.48;exitY=1;entryX=0.48;entryY=0;" edge="1" parent="1" source="85" target="106">
          <mxGeometry relative="1" as="geometry">
            <Array as="points" />
          </mxGeometry>
        </mxCell>
        <mxCell id="174" value="" style="curved=1;startArrow=ERmandOne;startSize=10;;endArrow=ERzeroToMany;endSize=10;;exitX=1;exitY=0.59;entryX=0;entryY=0.14;" edge="1" parent="1" source="20" target="141">
          <mxGeometry relative="1" as="geometry">
            <Array as="points">
              <mxPoint x="797" y="371" />
            </Array>
          </mxGeometry>
        </mxCell>
        <mxCell id="175" value="" style="curved=1;startArrow=ERmandOne;startSize=10;;endArrow=ERzeroToMany;endSize=10;;exitX=0.46;exitY=0.99;entryX=0.24;entryY=0;" edge="1" parent="1" source="123" target="141">
          <mxGeometry relative="1" as="geometry">
            <Array as="points">
              <mxPoint x="926" y="371" />
            </Array>
          </mxGeometry>
        </mxCell>
        <mxCell id="176" value="" style="curved=1;startArrow=ERmandOne;startSize=10;;endArrow=ERzeroToMany;endSize=10;;exitX=0.47;exitY=0.99;entryX=0.92;entryY=0.14;" edge="1" parent="1" source="132" target="141">
          <mxGeometry relative="1" as="geometry">
            <Array as="points">
              <mxPoint x="1184" y="371" />
            </Array>
          </mxGeometry>
        </mxCell>
      </root>
    </mxGraphModel>
  </diagram>
</mxfile>
